solid Untitled-56e1b1d7
facet normal -0.0 -0.0 1.0
  outer loop
    vertex 18.033036761140153 2.261762141333676 0.0
    vertex 18.000000000000004 2.628145436768983 0.0
    vertex 18.000000000000004 1.7512466950911105 0.0
  endloop
endfacet
facet normal -0.0 -0.0 1.0
  outer loop
    vertex 15.128145436768992 5.500000000000001 0.0
    vertex 14.761762141333678 5.533036761140151 0.0
    vertex 14.251246695091114 5.500000000000001 0.0
  endloop
endfacet
facet normal -0.0 -0.0 1.0
  outer loop
    vertex 18.032199654848306 -2.343814654728775 0.0
    vertex 18.000000000000004 -1.8462349708728782 0.0
    vertex 18.000000000000004 -2.7009142991265267 0.0
  endloop
endfacet
facet normal -0.0 -0.0 1.0
  outer loop
    vertex 15.20091429912654 -5.500000000000002 0.0
    vertex 14.346234970872878 -5.500000000000002 0.0
    vertex 14.843814654728774 -5.532199654848306 0.0
  endloop
endfacet
facet normal -0.0 -0.0 1.0
  outer loop
    vertex -17.999999999999993 -1.9264153441519145 0.0
    vertex -18.03149304664426 -2.413075846158517 0.0
    vertex -17.999999999999993 -2.7623390854899066 0.0
  endloop
endfacet
facet normal -0.0 -0.0 1.0
  outer loop
    vertex -14.426415344151904 -5.500000000000003 0.0
    vertex -15.262339085489904 -5.500000000000002 0.0
    vertex -14.913075846158506 -5.531493046644273 0.0
  endloop
endfacet
facet normal -0.0 -0.0 1.0
  outer loop
    vertex -17.999999999999993 2.6689222899657676 0.0
    vertex -18.032567679183014 2.3077411931525535 0.0
    vertex -17.999999999999993 1.8044744473395462 0.0
  endloop
endfacet
facet normal -0.0 -0.0 1.0
  outer loop
    vertex -14.304474447339539 5.500000000000001 0.0
    vertex -14.807741193152546 5.532567679183021 0.0
    vertex -15.168922289965764 5.500000000000001 0.0
  endloop
endfacet
facet normal -0.0 -0.0 1.0
  outer loop
    vertex -17.86965525631786 -3.371960702861241 17.0
    vertex -17.999999999999993 -1.9264153441519145 17.0
    vertex -17.999999999999993 -2.7623390854899066 17.0
  endloop
endfacet
facet normal -0.0 -0.0 1.0
  outer loop
    vertex -17.999999999999993 -1.9264153441519145 17.0
    vertex -17.86965525631786 -3.371960702861241 17.0
    vertex -17.999999999999993 1.8044744473395462 17.0
  endloop
endfacet
facet normal -0.0 -0.0 1.0
  outer loop
    vertex -17.999999999999993 1.8044744473395462 17.0
    vertex -17.86965525631786 -3.371960702861241 17.0
    vertex -17.999999999999993 2.6689222899657676 17.0
  endloop
endfacet
facet normal -0.0 -0.0 1.0
  outer loop
    vertex -17.999999999999993 2.6689222899657676 17.0
    vertex -17.86965525631786 -3.371960702861241 17.0
    vertex -17.86520752204819 3.299345934964135 17.0
  endloop
endfacet
facet normal -0.0 -0.0 1.0
  outer loop
    vertex -17.86520752204819 3.299345934964135 17.0
    vertex -17.86965525631786 -3.371960702861241 17.0
    vertex -17.68018230067374 -3.821327207264647 17.0
  endloop
endfacet
facet normal -0.0 -0.0 1.0
  outer loop
    vertex -17.86520752204819 3.299345934964135 17.0
    vertex -17.68018230067374 -3.821327207264647 17.0
    vertex -17.66926920896665 3.76404610564986 17.0
  endloop
endfacet
facet normal -0.0 -0.0 1.0
  outer loop
    vertex -17.66926920896665 3.76404610564986 17.0
    vertex -17.68018230067374 -3.821327207264647 17.0
    vertex -17.423794574557352 -4.236171262419261 17.0
  endloop
endfacet
facet normal -0.0 -0.0 1.0
  outer loop
    vertex -17.66926920896665 3.76404610564986 17.0
    vertex -17.423794574557352 -4.236171262419261 17.0
    vertex -17.4041328026691 4.193045822694294 17.0
  endloop
endfacet
facet normal -0.0 -0.0 1.0
  outer loop
    vertex -17.4041328026691 4.193045822694294 17.0
    vertex -17.423794574557352 -4.236171262419261 17.0
    vertex -17.10660383603797 -4.606603836037982 17.0
  endloop
endfacet
facet normal -0.0 -0.0 1.0
  outer loop
    vertex -17.4041328026691 4.193045822694294 17.0
    vertex -17.10660383603797 -4.606603836037982 17.0
    vertex -17.07611861183488 4.576118611834888 17.0
  endloop
endfacet
facet normal -0.0 -0.0 1.0
  outer loop
    vertex -17.07611861183488 4.576118611834888 17.0
    vertex -17.10660383603797 -4.606603836037982 17.0
    vertex -16.73617126241925 -4.923794574557359 17.0
  endloop
endfacet
facet normal -0.0 -0.0 1.0
  outer loop
    vertex -17.07611861183488 4.576118611834888 17.0
    vertex -16.73617126241925 -4.923794574557359 17.0
    vertex -16.693045822694284 4.904132802669109 17.0
  endloop
endfacet
facet normal -0.0 -0.0 1.0
  outer loop
    vertex -16.693045822694284 4.904132802669109 17.0
    vertex -16.73617126241925 -4.923794574557359 17.0
    vertex -16.321327207264638 -5.1801823006737475 17.0
  endloop
endfacet
facet normal -0.0 -0.0 1.0
  outer loop
    vertex -16.693045822694284 4.904132802669109 17.0
    vertex -16.321327207264638 -5.1801823006737475 17.0
    vertex -16.26404610564985 5.169269208966656 17.0
  endloop
endfacet
facet normal -0.0 -0.0 1.0
  outer loop
    vertex -16.26404610564985 5.169269208966656 17.0
    vertex -16.321327207264638 -5.1801823006737475 17.0
    vertex -15.87196070286123 -5.36965525631787 17.0
  endloop
endfacet
facet normal -0.0 -0.0 1.0
  outer loop
    vertex -16.26404610564985 5.169269208966656 17.0
    vertex -15.87196070286123 -5.36965525631787 17.0
    vertex -15.799345934964126 5.365207522048197 17.0
  endloop
endfacet
facet normal -0.0 -0.0 1.0
  outer loop
    vertex -15.799345934964126 5.365207522048197 17.0
    vertex -15.87196070286123 -5.36965525631787 17.0
    vertex -15.262339085489904 -5.500000000000002 17.0
  endloop
endfacet
facet normal -0.0 -0.0 1.0
  outer loop
    vertex -15.799345934964126 5.365207522048197 17.0
    vertex -15.262339085489904 -5.500000000000002 17.0
    vertex -15.168922289965764 5.500000000000001 17.0
  endloop
endfacet
facet normal -0.0 -0.0 1.0
  outer loop
    vertex -15.168922289965764 5.500000000000001 17.0
    vertex -15.262339085489904 -5.500000000000002 17.0
    vertex -14.426415344151904 -5.500000000000003 17.0
  endloop
endfacet
facet normal -0.0 -0.0 1.0
  outer loop
    vertex -15.168922289965764 5.500000000000001 17.0
    vertex -14.426415344151904 -5.500000000000003 17.0
    vertex -14.304474447339539 5.500000000000001 17.0
  endloop
endfacet
facet normal -0.0 -0.0 1.0
  outer loop
    vertex -14.304474447339539 5.500000000000001 17.0
    vertex -14.426415344151904 -5.500000000000003 17.0
    vertex 14.346234970872878 -5.500000000000002 17.0
  endloop
endfacet
facet normal -0.0 -0.0 1.0
  outer loop
    vertex -14.304474447339539 5.500000000000001 17.0
    vertex 14.346234970872878 -5.500000000000002 17.0
    vertex 14.251246695091114 5.500000000000001 17.0
  endloop
endfacet
facet normal -0.0 -0.0 1.0
  outer loop
    vertex 14.251246695091114 5.500000000000001 17.0
    vertex 14.346234970872878 -5.500000000000002 17.0
    vertex 15.128145436768992 5.500000000000001 17.0
  endloop
endfacet
facet normal -0.0 -0.0 1.0
  outer loop
    vertex 15.128145436768992 5.500000000000001 17.0
    vertex 14.346234970872878 -5.500000000000002 17.0
    vertex 15.20091429912654 -5.500000000000002 17.0
  endloop
endfacet
facet normal -0.0 -0.0 1.0
  outer loop
    vertex 15.128145436768992 5.500000000000001 17.0
    vertex 15.20091429912654 -5.500000000000002 17.0
    vertex 15.767649260786385 5.363266065949699 17.0
  endloop
endfacet
facet normal -0.0 -0.0 1.0
  outer loop
    vertex 15.767649260786385 5.363266065949699 17.0
    vertex 15.20091429912654 -5.500000000000002 17.0
    vertex 15.824213971881237 -5.366730716616174 17.0
  endloop
endfacet
facet normal -0.0 -0.0 1.0
  outer loop
    vertex 15.767649260786385 5.363266065949699 17.0
    vertex 15.824213971881237 -5.366730716616174 17.0
    vertex 16.239042646064348 5.164505595143616 17.0
  endloop
endfacet
facet normal -0.0 -0.0 1.0
  outer loop
    vertex 16.239042646064348 5.164505595143616 17.0
    vertex 15.824213971881237 -5.366730716616174 17.0
    vertex 16.28366289422966 -5.17300656398838 17.0
  endloop
endfacet
facet normal -0.0 -0.0 1.0
  outer loop
    vertex 16.239042646064348 5.164505595143616 17.0
    vertex 16.28366289422966 -5.17300656398838 17.0
    vertex 16.674221373462817 4.895550350430437 17.0
  endloop
endfacet
facet normal -0.0 -0.0 1.0
  outer loop
    vertex 16.674221373462817 4.895550350430437 17.0
    vertex 16.28366289422966 -5.17300656398838 17.0
    vertex 16.707814788542485 -4.910866276910402 17.0
  endloop
endfacet
facet normal -0.0 -0.0 1.0
  outer loop
    vertex 16.674221373462817 4.895550350430437 17.0
    vertex 16.707814788542485 -4.910866276910402 17.0
    vertex 17.06281167377278 4.562811673772779 17.0
  endloop
endfacet
facet normal -0.0 -0.0 1.0
  outer loop
    vertex 17.06281167377278 4.562811673772779 17.0
    vertex 16.707814788542485 -4.910866276910402 17.0
    vertex 17.08655874271822 -4.58655874271822 17.0
  endloop
endfacet
facet normal -0.0 -0.0 1.0
  outer loop
    vertex 17.06281167377278 4.562811673772779 17.0
    vertex 17.08655874271822 -4.58655874271822 17.0
    vertex 17.395550350430437 4.174221373462816 17.0
  endloop
endfacet
facet normal -0.0 -0.0 1.0
  outer loop
    vertex 17.395550350430437 4.174221373462816 17.0
    vertex 17.08655874271822 -4.58655874271822 17.0
    vertex 17.410866276910404 -4.2078147885424855 17.0
  endloop
endfacet
facet normal -0.0 -0.0 1.0
  outer loop
    vertex 17.395550350430437 4.174221373462816 17.0
    vertex 17.410866276910404 -4.2078147885424855 17.0
    vertex 17.664505595143616 3.7390426460643464 17.0
  endloop
endfacet
facet normal -0.0 -0.0 1.0
  outer loop
    vertex 17.664505595143616 3.7390426460643464 17.0
    vertex 17.410866276910404 -4.2078147885424855 17.0
    vertex 17.67300656398838 -3.7836628942296606 17.0
  endloop
endfacet
facet normal -0.0 -0.0 1.0
  outer loop
    vertex 17.664505595143616 3.7390426460643464 17.0
    vertex 17.67300656398838 -3.7836628942296606 17.0
    vertex 17.863266065949702 3.2676492607863814 17.0
  endloop
endfacet
facet normal -0.0 -0.0 1.0
  outer loop
    vertex 17.863266065949702 3.2676492607863814 17.0
    vertex 17.67300656398838 -3.7836628942296606 17.0
    vertex 17.866730716616175 -3.3242139718812367 17.0
  endloop
endfacet
facet normal -0.0 -0.0 1.0
  outer loop
    vertex 17.863266065949702 3.2676492607863814 17.0
    vertex 17.866730716616175 -3.3242139718812367 17.0
    vertex 18.000000000000004 2.628145436768983 17.0
  endloop
endfacet
facet normal -0.0 -0.0 1.0
  outer loop
    vertex 18.000000000000004 2.628145436768983 17.0
    vertex 17.866730716616175 -3.3242139718812367 17.0
    vertex 18.000000000000004 -2.7009142991265267 17.0
  endloop
endfacet
facet normal -0.0 -0.0 1.0
  outer loop
    vertex 18.000000000000004 2.628145436768983 17.0
    vertex 18.000000000000004 -2.7009142991265267 17.0
    vertex 18.000000000000004 -1.8462349708728782 17.0
  endloop
endfacet
facet normal -0.0 -0.0 1.0
  outer loop
    vertex 18.000000000000004 2.628145436768983 17.0
    vertex 18.000000000000004 -1.8462349708728782 17.0
    vertex 18.000000000000004 1.7512466950911105 17.0
  endloop
endfacet
facet normal -0.0 -1.0 -0.0
  outer loop
    vertex 15.20091429912654 -5.500000000000002 17.0
    vertex 14.346234970872878 -5.500000000000002 0.0
    vertex 15.20091429912654 -5.500000000000002 0.0
  endloop
endfacet
facet normal -0.0 -1.0 -0.0
  outer loop
    vertex 14.346234970872878 -5.500000000000002 0.0
    vertex 15.20091429912654 -5.500000000000002 17.0
    vertex 14.346234970872878 -5.500000000000002 17.0
  endloop
endfacet
facet normal 2.4502143977638202e-17 -1.0 0.0
  outer loop
    vertex 14.346234970872878 -5.500000000000002 17.0
    vertex -14.426415344151904 -5.500000000000003 0.0
    vertex 14.346234970872878 -5.500000000000002 0.0
  endloop
endfacet
facet normal 2.4502143977638202e-17 -1.0 0.0
  outer loop
    vertex -14.426415344151904 -5.500000000000003 0.0
    vertex 14.346234970872878 -5.500000000000002 17.0
    vertex -14.426415344151904 -5.500000000000003 17.0
  endloop
endfacet
facet normal -8.433683430363493e-16 -1.0 -0.0
  outer loop
    vertex -14.426415344151904 -5.500000000000003 17.0
    vertex -15.262339085489904 -5.500000000000002 0.0
    vertex -14.426415344151904 -5.500000000000003 0.0
  endloop
endfacet
facet normal -8.433683430363493e-16 -1.0 -0.0
  outer loop
    vertex -15.262339085489904 -5.500000000000002 0.0
    vertex -14.426415344151904 -5.500000000000003 17.0
    vertex -15.262339085489904 -5.500000000000002 17.0
  endloop
endfacet
facet normal -0.20908666162275874 -0.9778971152076532 -0.0
  outer loop
    vertex -15.262339085489904 -5.500000000000002 17.0
    vertex -15.87196070286123 -5.36965525631787 0.0
    vertex -15.262339085489904 -5.500000000000002 0.0
  endloop
endfacet
facet normal -0.20908666162275874 -0.9778971152076532 -0.0
  outer loop
    vertex -15.87196070286123 -5.36965525631787 0.0
    vertex -15.262339085489904 -5.500000000000002 17.0
    vertex -15.87196070286123 -5.36965525631787 17.0
  endloop
endfacet
facet normal -0.38852026653594596 -0.9214401784656657 -0.0
  outer loop
    vertex -15.87196070286123 -5.36965525631787 17.0
    vertex -16.321327207264638 -5.1801823006737475 0.0
    vertex -15.87196070286123 -5.36965525631787 0.0
  endloop
endfacet
facet normal -0.38852026653594596 -0.9214401784656657 -0.0
  outer loop
    vertex -16.321327207264638 -5.1801823006737475 0.0
    vertex -15.87196070286123 -5.36965525631787 17.0
    vertex -16.321327207264638 -5.1801823006737475 17.0
  endloop
endfacet
facet normal -0.5257311121191334 -0.8506508083520401 -0.0
  outer loop
    vertex -16.321327207264638 -5.1801823006737475 17.0
    vertex -16.73617126241925 -4.923794574557359 0.0
    vertex -16.321327207264638 -5.1801823006737475 0.0
  endloop
endfacet
facet normal -0.5257311121191334 -0.8506508083520401 -0.0
  outer loop
    vertex -16.73617126241925 -4.923794574557359 0.0
    vertex -16.321327207264638 -5.1801823006737475 17.0
    vertex -16.73617126241925 -4.923794574557359 17.0
  endloop
endfacet
facet normal -0.650409605177365 -0.7595836658940373 -0.0
  outer loop
    vertex -16.73617126241925 -4.923794574557359 17.0
    vertex -17.10660383603797 -4.606603836037982 0.0
    vertex -16.73617126241925 -4.923794574557359 0.0
  endloop
endfacet
facet normal -0.650409605177365 -0.7595836658940373 -0.0
  outer loop
    vertex -17.10660383603797 -4.606603836037982 0.0
    vertex -16.73617126241925 -4.923794574557359 17.0
    vertex -17.10660383603797 -4.606603836037982 17.0
  endloop
endfacet
facet normal -0.7595836658940367 -0.6504096051773655 -0.0
  outer loop
    vertex -17.423794574557352 -4.236171262419261 17.0
    vertex -17.10660383603797 -4.606603836037982 0.0
    vertex -17.10660383603797 -4.606603836037982 17.0
  endloop
endfacet
facet normal -0.7595836658940367 -0.6504096051773655 -0.0
  outer loop
    vertex -17.10660383603797 -4.606603836037982 0.0
    vertex -17.423794574557352 -4.236171262419261 17.0
    vertex -17.423794574557352 -4.236171262419261 0.0
  endloop
endfacet
facet normal -0.850650808352041 -0.5257311121191319 -0.0
  outer loop
    vertex -17.68018230067374 -3.821327207264647 17.0
    vertex -17.423794574557352 -4.236171262419261 0.0
    vertex -17.423794574557352 -4.236171262419261 17.0
  endloop
endfacet
facet normal -0.850650808352041 -0.5257311121191319 -0.0
  outer loop
    vertex -17.423794574557352 -4.236171262419261 0.0
    vertex -17.68018230067374 -3.821327207264647 17.0
    vertex -17.68018230067374 -3.821327207264647 0.0
  endloop
endfacet
facet normal -0.921440178465665 -0.3885202665359477 -0.0
  outer loop
    vertex -17.86965525631786 -3.371960702861241 17.0
    vertex -17.68018230067374 -3.821327207264647 0.0
    vertex -17.68018230067374 -3.821327207264647 17.0
  endloop
endfacet
facet normal -0.921440178465665 -0.3885202665359477 -0.0
  outer loop
    vertex -17.68018230067374 -3.821327207264647 0.0
    vertex -17.86965525631786 -3.371960702861241 17.0
    vertex -17.86965525631786 -3.371960702861241 0.0
  endloop
endfacet
facet normal -0.9778971152076537 -0.20908666162275638 -0.0
  outer loop
    vertex -17.999999999999993 -2.7623390854899066 17.0
    vertex -17.86965525631786 -3.371960702861241 0.0
    vertex -17.86965525631786 -3.371960702861241 17.0
  endloop
endfacet
facet normal -0.9778971152076537 -0.20908666162275638 -0.0
  outer loop
    vertex -17.86965525631786 -3.371960702861241 0.0
    vertex -17.999999999999993 -2.7623390854899066 17.0
    vertex -17.999999999999993 -2.7623390854899066 0.0
  endloop
endfacet
facet normal -1.0 0.0 0.0
  outer loop
    vertex -17.999999999999993 -1.9264153441519145 17.0
    vertex -17.999999999999993 -2.7623390854899066 0.0
    vertex -17.999999999999993 -2.7623390854899066 17.0
  endloop
endfacet
facet normal -1.0 0.0 0.0
  outer loop
    vertex -17.999999999999993 -2.7623390854899066 0.0
    vertex -17.999999999999993 -1.9264153441519145 17.0
    vertex -17.999999999999993 -1.9264153441519145 0.0
  endloop
endfacet
facet normal -1.0 0.0 0.0
  outer loop
    vertex -17.999999999999993 1.8044744473395462 17.0
    vertex -17.999999999999993 -1.9264153441519145 0.0
    vertex -17.999999999999993 -1.9264153441519145 17.0
  endloop
endfacet
facet normal -1.0 0.0 0.0
  outer loop
    vertex -17.999999999999993 -1.9264153441519145 0.0
    vertex -17.999999999999993 1.8044744473395462 17.0
    vertex -17.999999999999993 1.8044744473395462 0.0
  endloop
endfacet
facet normal -1.0 0.0 0.0
  outer loop
    vertex -17.999999999999993 2.6689222899657676 17.0
    vertex -17.999999999999993 1.8044744473395462 0.0
    vertex -17.999999999999993 1.8044744473395462 17.0
  endloop
endfacet
facet normal -1.0 0.0 0.0
  outer loop
    vertex -17.999999999999993 1.8044744473395462 0.0
    vertex -17.999999999999993 2.6689222899657676 17.0
    vertex -17.999999999999993 2.6689222899657676 0.0
  endloop
endfacet
facet normal -0.9778971152076537 0.20908666162275658 0.0
  outer loop
    vertex -17.86520752204819 3.299345934964135 17.0
    vertex -17.999999999999993 2.6689222899657676 0.0
    vertex -17.999999999999993 2.6689222899657676 17.0
  endloop
endfacet
facet normal -0.9778971152076537 0.20908666162275658 0.0
  outer loop
    vertex -17.999999999999993 2.6689222899657676 0.0
    vertex -17.86520752204819 3.299345934964135 17.0
    vertex -17.86520752204819 3.299345934964135 0.0
  endloop
endfacet
facet normal -0.9214401784656662 0.3885202665359449 0.0
  outer loop
    vertex -17.66926920896665 3.76404610564986 17.0
    vertex -17.86520752204819 3.299345934964135 0.0
    vertex -17.86520752204819 3.299345934964135 17.0
  endloop
endfacet
facet normal -0.9214401784656662 0.3885202665359449 0.0
  outer loop
    vertex -17.86520752204819 3.299345934964135 0.0
    vertex -17.66926920896665 3.76404610564986 17.0
    vertex -17.66926920896665 3.76404610564986 0.0
  endloop
endfacet
facet normal -0.8506508083520388 0.5257311121191355 0.0
  outer loop
    vertex -17.4041328026691 4.193045822694294 17.0
    vertex -17.66926920896665 3.76404610564986 0.0
    vertex -17.66926920896665 3.76404610564986 17.0
  endloop
endfacet
facet normal -0.8506508083520388 0.5257311121191355 0.0
  outer loop
    vertex -17.66926920896665 3.76404610564986 0.0
    vertex -17.4041328026691 4.193045822694294 17.0
    vertex -17.4041328026691 4.193045822694294 0.0
  endloop
endfacet
facet normal -0.759583665894039 0.6504096051773628 0.0
  outer loop
    vertex -17.07611861183488 4.576118611834888 17.0
    vertex -17.4041328026691 4.193045822694294 0.0
    vertex -17.4041328026691 4.193045822694294 17.0
  endloop
endfacet
facet normal -0.759583665894039 0.6504096051773628 0.0
  outer loop
    vertex -17.4041328026691 4.193045822694294 0.0
    vertex -17.07611861183488 4.576118611834888 17.0
    vertex -17.07611861183488 4.576118611834888 0.0
  endloop
endfacet
facet normal -0.6504096051773621 0.7595836658940396 0.0
  outer loop
    vertex -17.07611861183488 4.576118611834888 17.0
    vertex -16.693045822694284 4.904132802669109 0.0
    vertex -17.07611861183488 4.576118611834888 0.0
  endloop
endfacet
facet normal -0.6504096051773621 0.7595836658940396 0.0
  outer loop
    vertex -16.693045822694284 4.904132802669109 0.0
    vertex -17.07611861183488 4.576118611834888 17.0
    vertex -16.693045822694284 4.904132802669109 17.0
  endloop
endfacet
facet normal -0.525731112119133 0.8506508083520402 0.0
  outer loop
    vertex -16.693045822694284 4.904132802669109 17.0
    vertex -16.26404610564985 5.169269208966656 0.0
    vertex -16.693045822694284 4.904132802669109 0.0
  endloop
endfacet
facet normal -0.525731112119133 0.8506508083520402 0.0
  outer loop
    vertex -16.26404610564985 5.169269208966656 0.0
    vertex -16.693045822694284 4.904132802669109 17.0
    vertex -16.26404610564985 5.169269208966656 17.0
  endloop
endfacet
facet normal -0.38852026653594557 0.9214401784656658 0.0
  outer loop
    vertex -16.26404610564985 5.169269208966656 17.0
    vertex -15.799345934964126 5.365207522048197 0.0
    vertex -16.26404610564985 5.169269208966656 0.0
  endloop
endfacet
facet normal -0.38852026653594557 0.9214401784656658 0.0
  outer loop
    vertex -15.799345934964126 5.365207522048197 0.0
    vertex -16.26404610564985 5.169269208966656 17.0
    vertex -15.799345934964126 5.365207522048197 17.0
  endloop
endfacet
facet normal -0.2090866616227593 0.977897115207653 0.0
  outer loop
    vertex -15.799345934964126 5.365207522048197 17.0
    vertex -15.168922289965764 5.500000000000001 0.0
    vertex -15.799345934964126 5.365207522048197 0.0
  endloop
endfacet
facet normal -0.2090866616227593 0.977897115207653 0.0
  outer loop
    vertex -15.168922289965764 5.500000000000001 0.0
    vertex -15.799345934964126 5.365207522048197 17.0
    vertex -15.168922289965764 5.500000000000001 17.0
  endloop
endfacet
facet normal -8.15539799943491e-16 1.0 0.0
  outer loop
    vertex -15.168922289965764 5.500000000000001 17.0
    vertex -14.304474447339539 5.500000000000001 0.0
    vertex -15.168922289965764 5.500000000000001 0.0
  endloop
endfacet
facet normal -8.15539799943491e-16 1.0 0.0
  outer loop
    vertex -14.304474447339539 5.500000000000001 0.0
    vertex -15.168922289965764 5.500000000000001 17.0
    vertex -14.304474447339539 5.500000000000001 17.0
  endloop
endfacet
facet normal -0.0 1.0 0.0
  outer loop
    vertex -14.304474447339539 5.500000000000001 17.0
    vertex 14.251246695091114 5.500000000000001 0.0
    vertex -14.304474447339539 5.500000000000001 0.0
  endloop
endfacet
facet normal -0.0 1.0 0.0
  outer loop
    vertex 14.251246695091114 5.500000000000001 0.0
    vertex -14.304474447339539 5.500000000000001 17.0
    vertex 14.251246695091114 5.500000000000001 17.0
  endloop
endfacet
facet normal 8.039601234779133e-16 1.0 0.0
  outer loop
    vertex 14.251246695091114 5.500000000000001 17.0
    vertex 15.128145436768992 5.500000000000001 0.0
    vertex 14.251246695091114 5.500000000000001 0.0
  endloop
endfacet
facet normal 8.039601234779133e-16 1.0 0.0
  outer loop
    vertex 15.128145436768992 5.500000000000001 0.0
    vertex 14.251246695091114 5.500000000000001 17.0
    vertex 15.128145436768992 5.500000000000001 17.0
  endloop
endfacet
facet normal 0.20908666162275594 0.9778971152076539 0.0
  outer loop
    vertex 15.128145436768992 5.500000000000001 17.0
    vertex 15.767649260786385 5.363266065949699 0.0
    vertex 15.128145436768992 5.500000000000001 0.0
  endloop
endfacet
facet normal 0.20908666162275594 0.9778971152076539 0.0
  outer loop
    vertex 15.767649260786385 5.363266065949699 0.0
    vertex 15.128145436768992 5.500000000000001 17.0
    vertex 15.767649260786385 5.363266065949699 17.0
  endloop
endfacet
facet normal 0.3885202665359471 0.9214401784656651 0.0
  outer loop
    vertex 15.767649260786385 5.363266065949699 17.0
    vertex 16.239042646064348 5.164505595143616 0.0
    vertex 15.767649260786385 5.363266065949699 0.0
  endloop
endfacet
facet normal 0.3885202665359471 0.9214401784656651 0.0
  outer loop
    vertex 16.239042646064348 5.164505595143616 0.0
    vertex 15.767649260786385 5.363266065949699 17.0
    vertex 16.239042646064348 5.164505595143616 17.0
  endloop
endfacet
facet normal 0.5257311121191334 0.8506508083520401 0.0
  outer loop
    vertex 16.239042646064348 5.164505595143616 17.0
    vertex 16.674221373462817 4.895550350430437 0.0
    vertex 16.239042646064348 5.164505595143616 0.0
  endloop
endfacet
facet normal 0.5257311121191334 0.8506508083520401 0.0
  outer loop
    vertex 16.674221373462817 4.895550350430437 0.0
    vertex 16.239042646064348 5.164505595143616 17.0
    vertex 16.674221373462817 4.895550350430437 17.0
  endloop
endfacet
facet normal 0.6504096051773623 0.7595836658940396 0.0
  outer loop
    vertex 16.674221373462817 4.895550350430437 17.0
    vertex 17.06281167377278 4.562811673772779 0.0
    vertex 16.674221373462817 4.895550350430437 0.0
  endloop
endfacet
facet normal 0.6504096051773623 0.7595836658940396 0.0
  outer loop
    vertex 17.06281167377278 4.562811673772779 0.0
    vertex 16.674221373462817 4.895550350430437 17.0
    vertex 17.06281167377278 4.562811673772779 17.0
  endloop
endfacet
facet normal 0.7595836658940402 0.6504096051773615 0.0
  outer loop
    vertex 17.06281167377278 4.562811673772779 0.0
    vertex 17.395550350430437 4.174221373462816 17.0
    vertex 17.395550350430437 4.174221373462816 0.0
  endloop
endfacet
facet normal 0.7595836658940402 0.6504096051773615 0.0
  outer loop
    vertex 17.395550350430437 4.174221373462816 17.0
    vertex 17.06281167377278 4.562811673772779 0.0
    vertex 17.06281167377278 4.562811673772779 17.0
  endloop
endfacet
facet normal 0.8506508083520405 0.5257311121191328 0.0
  outer loop
    vertex 17.395550350430437 4.174221373462816 0.0
    vertex 17.664505595143616 3.7390426460643464 17.0
    vertex 17.664505595143616 3.7390426460643464 0.0
  endloop
endfacet
facet normal 0.8506508083520405 0.5257311121191328 0.0
  outer loop
    vertex 17.664505595143616 3.7390426460643464 17.0
    vertex 17.395550350430437 4.174221373462816 0.0
    vertex 17.395550350430437 4.174221373462816 17.0
  endloop
endfacet
facet normal 0.9214401784656632 0.38852026653595184 0.0
  outer loop
    vertex 17.664505595143616 3.7390426460643464 0.0
    vertex 17.863266065949702 3.2676492607863814 17.0
    vertex 17.863266065949702 3.2676492607863814 0.0
  endloop
endfacet
facet normal 0.9214401784656632 0.38852026653595184 0.0
  outer loop
    vertex 17.863266065949702 3.2676492607863814 17.0
    vertex 17.664505595143616 3.7390426460643464 0.0
    vertex 17.664505595143616 3.7390426460643464 17.0
  endloop
endfacet
facet normal 0.9778971152076544 0.20908666162275288 0.0
  outer loop
    vertex 17.863266065949702 3.2676492607863814 0.0
    vertex 18.000000000000004 2.628145436768983 17.0
    vertex 18.000000000000004 2.628145436768983 0.0
  endloop
endfacet
facet normal 0.9778971152076544 0.20908666162275288 0.0
  outer loop
    vertex 18.000000000000004 2.628145436768983 17.0
    vertex 17.863266065949702 3.2676492607863814 0.0
    vertex 17.863266065949702 3.2676492607863814 17.0
  endloop
endfacet
facet normal 1.0 0.0 0.0
  outer loop
    vertex 18.000000000000004 2.628145436768983 0.0
    vertex 18.000000000000004 1.7512466950911105 17.0
    vertex 18.000000000000004 1.7512466950911105 0.0
  endloop
endfacet
facet normal 1.0 0.0 0.0
  outer loop
    vertex 18.000000000000004 1.7512466950911105 17.0
    vertex 18.000000000000004 2.628145436768983 0.0
    vertex 18.000000000000004 2.628145436768983 17.0
  endloop
endfacet
facet normal 1.0 0.0 0.0
  outer loop
    vertex 18.000000000000004 1.7512466950911105 0.0
    vertex 18.000000000000004 -1.8462349708728782 17.0
    vertex 18.000000000000004 -1.8462349708728782 0.0
  endloop
endfacet
facet normal 1.0 0.0 0.0
  outer loop
    vertex 18.000000000000004 -1.8462349708728782 17.0
    vertex 18.000000000000004 1.7512466950911105 0.0
    vertex 18.000000000000004 1.7512466950911105 17.0
  endloop
endfacet
facet normal 1.0 0.0 0.0
  outer loop
    vertex 18.000000000000004 -1.8462349708728782 0.0
    vertex 18.000000000000004 -2.7009142991265267 17.0
    vertex 18.000000000000004 -2.7009142991265267 0.0
  endloop
endfacet
facet normal 1.0 0.0 0.0
  outer loop
    vertex 18.000000000000004 -2.7009142991265267 17.0
    vertex 18.000000000000004 -1.8462349708728782 0.0
    vertex 18.000000000000004 -1.8462349708728782 17.0
  endloop
endfacet
facet normal 0.9778971152076542 -0.20908666162275347 0.0
  outer loop
    vertex 18.000000000000004 -2.7009142991265267 0.0
    vertex 17.866730716616175 -3.3242139718812367 17.0
    vertex 17.866730716616175 -3.3242139718812367 0.0
  endloop
endfacet
facet normal 0.9778971152076542 -0.20908666162275347 0.0
  outer loop
    vertex 17.866730716616175 -3.3242139718812367 17.0
    vertex 18.000000000000004 -2.7009142991265267 0.0
    vertex 18.000000000000004 -2.7009142991265267 17.0
  endloop
endfacet
facet normal 0.9214401784656645 -0.3885202665359487 0.0
  outer loop
    vertex 17.866730716616175 -3.3242139718812367 0.0
    vertex 17.67300656398838 -3.7836628942296606 17.0
    vertex 17.67300656398838 -3.7836628942296606 0.0
  endloop
endfacet
facet normal 0.9214401784656645 -0.3885202665359487 0.0
  outer loop
    vertex 17.67300656398838 -3.7836628942296606 17.0
    vertex 17.866730716616175 -3.3242139718812367 0.0
    vertex 17.866730716616175 -3.3242139718812367 17.0
  endloop
endfacet
facet normal 0.8506508083520413 -0.5257311121191315 0.0
  outer loop
    vertex 17.67300656398838 -3.7836628942296606 0.0
    vertex 17.410866276910404 -4.2078147885424855 17.0
    vertex 17.410866276910404 -4.2078147885424855 0.0
  endloop
endfacet
facet normal 0.8506508083520413 -0.5257311121191315 0.0
  outer loop
    vertex 17.410866276910404 -4.2078147885424855 17.0
    vertex 17.67300656398838 -3.7836628942296606 0.0
    vertex 17.67300656398838 -3.7836628942296606 17.0
  endloop
endfacet
facet normal 0.7595836658940361 -0.6504096051773661 0.0
  outer loop
    vertex 17.410866276910404 -4.2078147885424855 0.0
    vertex 17.08655874271822 -4.58655874271822 17.0
    vertex 17.08655874271822 -4.58655874271822 0.0
  endloop
endfacet
facet normal 0.7595836658940361 -0.6504096051773661 0.0
  outer loop
    vertex 17.08655874271822 -4.58655874271822 17.0
    vertex 17.410866276910404 -4.2078147885424855 0.0
    vertex 17.410866276910404 -4.2078147885424855 17.0
  endloop
endfacet
facet normal 0.6504096051773636 -0.7595836658940384 0.0
  outer loop
    vertex 17.08655874271822 -4.58655874271822 17.0
    vertex 16.707814788542485 -4.910866276910402 0.0
    vertex 17.08655874271822 -4.58655874271822 0.0
  endloop
endfacet
facet normal 0.6504096051773636 -0.7595836658940384 0.0
  outer loop
    vertex 16.707814788542485 -4.910866276910402 0.0
    vertex 17.08655874271822 -4.58655874271822 17.0
    vertex 16.707814788542485 -4.910866276910402 17.0
  endloop
endfacet
facet normal 0.5257311121191329 -0.8506508083520405 0.0
  outer loop
    vertex 16.707814788542485 -4.910866276910402 17.0
    vertex 16.28366289422966 -5.17300656398838 0.0
    vertex 16.707814788542485 -4.910866276910402 0.0
  endloop
endfacet
facet normal 0.5257311121191329 -0.8506508083520405 0.0
  outer loop
    vertex 16.28366289422966 -5.17300656398838 0.0
    vertex 16.707814788542485 -4.910866276910402 17.0
    vertex 16.28366289422966 -5.17300656398838 17.0
  endloop
endfacet
facet normal 0.3885202665359496 -0.921440178465664 0.0
  outer loop
    vertex 16.28366289422966 -5.17300656398838 17.0
    vertex 15.824213971881237 -5.366730716616174 0.0
    vertex 16.28366289422966 -5.17300656398838 0.0
  endloop
endfacet
facet normal 0.3885202665359496 -0.921440178465664 0.0
  outer loop
    vertex 15.824213971881237 -5.366730716616174 0.0
    vertex 16.28366289422966 -5.17300656398838 17.0
    vertex 15.824213971881237 -5.366730716616174 17.0
  endloop
endfacet
facet normal 0.2090866616227565 -0.9778971152076537 0.0
  outer loop
    vertex 15.824213971881237 -5.366730716616174 17.0
    vertex 15.20091429912654 -5.500000000000002 0.0
    vertex 15.824213971881237 -5.366730716616174 0.0
  endloop
endfacet
facet normal 0.2090866616227565 -0.9778971152076537 0.0
  outer loop
    vertex 15.20091429912654 -5.500000000000002 0.0
    vertex 15.824213971881237 -5.366730716616174 17.0
    vertex 15.20091429912654 -5.500000000000002 17.0
  endloop
endfacet
endsolid Untitled-56e1b1d7
